# xmcd CD database file
#
# Track frame offsets:
#	150
#	16986
#	32072
#	51411
#	70548
#	92642
#	105206
#	121979
#	150734
#	169067
#	198261
#	218598
#
# Disc length: 3134 seconds
#
# Revision: 0
# Processed by: cddbd v1.5.2PL0 Copyright (c) Steve Scherf et al.
# Submitted via: CDex 1.70beta2
#
DISCID=910c3c0c
DTITLE=Ñaco y Los Bluescavidas - Nada que Perder
DYEAR=2003
DGENRE=Blues
TTITLE0=Nada que perder
TTITLE1=Vuelvo al foro
TTITLE2=Go away and never back
TTITLE3=Borracho
TTITLE4=Broke this feeling
TTITLE5=Tributo a Carey Bell
TTITLE6=You're so fine
TTITLE7=Peña, peña, peña
TTITLE8=From the bottom
TTITLE9=Insulin Blues
TTITLE10=Apesta a blues
TTITLE11=Dejar el blues de una vez
EXTD=YEAR: 2003
EXTT0=
EXTT1=
EXTT2=
EXTT3=
EXTT4=
EXTT5=
EXTT6=
EXTT7=
EXTT8=
EXTT9=
EXTT10=
EXTT11=
PLAYORDER=
